<?xml version="1.0" encoding="utf-8"?>
<!-- Generator: Adobe Illustrator 19.0.0, SVG Export Plug-In . SVG Version: 6.00 Build 0)  -->
<svg version="1.1" id="Layer_1" xmlns="http://www.w3.org/2000/svg" xmlns:xlink="http://www.w3.org/1999/xlink" x="0px" y="0px"
	 viewBox="0 0 1000 200" style="enable-background:new 0 0 1000 200;" xml:space="preserve">
<style type="text/css">
	.st0{enable-background:new    ;}
	.st1{clip-path:url(#XMLID_94_);}
	.st2{fill:#560000;}
	.st3{fill:#D22627;}
	.st4{fill:#434345;}
</style>
<g id="XMLID_11_">
	<g id="XMLID_10_">
		<g id="XMLID_17_" class="st0">
			<g id="XMLID_181_" class="st0">
				<defs>
					<path id="XMLID_183_" class="st0" d="M-262.1,43.3c0-0.4,1.2-0.8,3.7-1.3c9.4-1.9,36.7-4.7,80.9-8.2
						c44.3-3.5,103.3-7.6,175.6-12.2c74.8-4.7,160.5-9.7,254.8-14.9C347.1,1.6,444.2-3.5,541.6-8.2l8.2,164.6
						c-97.3,4.7-194.4,9.7-288.7,14.9c-94.2,5.2-180,10.2-254.8,14.9c-72.3,4.6-131.3,8.6-175.6,12.2c-44.3,3.5-71.5,6.3-80.9,8.2
						c-2.5,0.5-3.7,0.9-3.7,1.3C-256.3,158.5-259.6,92.7-262.1,43.3z"/>
				</defs>
				<clipPath id="XMLID_89_">
					<use xlink:href="#XMLID_183_"  style="overflow:visible;"/>
				</clipPath>
			</g>
			<g id="XMLID_178_" class="st0">
				<defs>
					<path id="XMLID_180_" class="st0" d="M1208.1,134.7c-0.1-1.1-11.1-1.7-32.9-1.7c-29.2,0-75.9,1-138.9,3
						c-60.9,1.9-134.3,4.7-218.2,8.2c-84,3.5-174.2,7.6-268.2,12.2L541.6-8.2c94-4.6,184.2-8.6,268.2-12.2
						c83.9-3.5,157.4-6.3,218.2-8.2c63-2,109.8-3,138.9-3c21.8,0,32.8,0.6,32.9,1.7C1202.3,19.5,1205.6,85.3,1208.1,134.7z"/>
				</defs>
				<clipPath id="XMLID_90_">
					<use xlink:href="#XMLID_180_"  style="overflow:visible;"/>
				</clipPath>
			</g>
			<g id="XMLID_176_">
			</g>
			<g id="XMLID_173_" class="st0">
				<defs>
					<path id="XMLID_175_" class="st0" d="M-257.2,43c0.1,1.1,10.5,1.7,32.5,1.7l8.2,164.6c-22,0-32.5-0.6-32.5-1.7
						C-251.4,158.2-254.7,92.4-257.2,43z"/>
				</defs>
				<clipPath id="XMLID_91_">
					<use xlink:href="#XMLID_175_"  style="overflow:visible;"/>
				</clipPath>
			</g>
			<g id="XMLID_170_" class="st0">
				<defs>
					<path id="XMLID_172_" class="st0" d="M1203.2,135c0.2,4.8-200,19.3-511.4,36.3c-382.4,21-789.8,38-908.2,38l-8.2-164.6
						c118.3,0,525.7-17.1,908.2-38c311.4-17.1,511.7-31.5,511.4-36.3C1197.4,19.8,1200.7,85.6,1203.2,135z"/>
				</defs>
				<clipPath id="XMLID_92_">
					<use xlink:href="#XMLID_172_"  style="overflow:visible;"/>
				</clipPath>
			</g>
			<g id="XMLID_168_">
			</g>
			<g id="XMLID_154_" class="st0">
				<defs>
					<path id="XMLID_156_" class="st0" d="M-250.6,174c-0.1-2.4-0.2-4.7-0.4-7.1L-250.6,174z M-251.7,152.2
						c-0.5-10.9-1.1-21.9-1.6-32.9L-251.7,152.2z M-254.4,98.5c-0.2-4.9-0.5-9.8-0.7-14.7L-254.4,98.5z M-255.5,76.7
						c-0.1-1.8-0.2-3.5-0.3-5.3L-255.5,76.7z M-248.9,207.6c-0.4-9-0.9-18.5-1.4-28.3L-248.9,207.6z M1196.7,5.3
						c0.1,1.9,0.2,3.7,0.3,5.6L1196.7,5.3z M1197.7,26.1c0.3,6.8,0.7,13.7,1,20.6L1197.7,26.1z M1200.4,79.3
						c0.2,4.8,0.5,9.5,0.7,14.2L1200.4,79.3z M1201.5,102.2c0.1,1.6,0.2,3.1,0.2,4.7L1201.5,102.2z M-224.7,44.7
						c118.3,0,525.7-17.1,908.2-38c311.4-17.1,511.7-31.5,511.4-36.3c-0.1-1.1-10.5-1.7-32.5-1.7c-118.3,0-525.7,17.1-908.1,38
						C-57.1,23.8-257.4,38.3-257.2,43C-257.1,44.1-246.6,44.7-224.7,44.7z M1194.9-29.6c0.4,8.9,0.9,18.3,1.4,28.1L1194.9-29.6z"/>
				</defs>
				<clipPath id="XMLID_93_">
					<use xlink:href="#XMLID_156_"  style="overflow:visible;"/>
				</clipPath>
			</g>
			<g id="XMLID_19_" class="st0">
				<defs>
					<path id="XMLID_153_" class="st0" d="M-253.8,207.8l-8.2-164.6c0.1,1.1,11.1,1.7,32.9,1.7c29.2,0,75.9-1,138.9-3
						C-29.4,40,44.1,37.3,128,33.8c83.9-3.5,174.2-7.6,268.2-12.2c97.3-4.7,194.5-9.7,288.7-14.9C779.1,1.6,864.8-3.5,939.6-8.2
						c72.2-4.6,131.3-8.6,175.6-12.2c44.3-3.5,71.5-6.3,80.9-8.2c2.5-0.5,3.7-0.9,3.7-1.3l8.2,164.6c0,0.4-1.2,0.8-3.7,1.3
						c-9.4,1.9-36.7,4.7-80.9,8.2c-44.3,3.5-103.4,7.6-175.6,12.2c-74.8,4.7-160.5,9.7-254.7,14.9c-94.2,5.2-191.4,10.2-288.7,14.9
						c-94,4.6-184.2,8.6-268.2,12.2c-83.9,3.5-157.4,6.3-218.3,8.2c-63,2-109.8,3-138.9,3C-242.8,209.5-253.8,209-253.8,207.8z"/>
				</defs>
				<clipPath id="XMLID_94_">
					<use xlink:href="#XMLID_153_"  style="overflow:visible;"/>
				</clipPath>
				<g id="XMLID_20_" class="st1">
					<g id="XMLID_21_">
						<g id="XMLID_104_">
							<path id="XMLID_148_" class="st2" d="M53.1,75.2l1.6,31.6c10.9-0.5,12.4-2.1,11.9-13.3l-0.4-7.8
								C65.7,76.9,63.1,74.9,53.1,75.2 M19.1,194.5L12,52.4c9.2-0.3,18.5-0.7,28-1.1c39.3-1.4,47.1-0.3,55.9,8.2
								c13.7,13.2,11.4,45,5.7,51.3c-4.6,5.1-14.3,6.4-17.9,6.9c23.9,4.3,24.3,12.9,25.5,35.7l1.9,37.5c-13.5,0.6-26.7,1.1-39.5,1.6
								l-2.4-47.2c-0.9-15.3-2-16.7-13.4-16.4L59,193C45.4,193.5,32.1,194,19.1,194.5 M39.7,45.2c-9.5,0.4-18.9,0.7-28,1.1l-6.4,6.4
								l7.1,142.1l7.1,5.9c12.9-0.5,26.3-1,39.9-1.5l6-5.6l6.6,5.1c12.9-0.5,26.1-1,39.5-1.6l7.3-6.5l-1.3-25.2
								c-0.2-2.9-0.5-6-0.8-12.7l-0.6-11.7c-0.7-7.9-1.5-16.1-12.3-23.2c6-4.2,9.6-9.5,9.9-24.2l-0.6-12.2
								C108,42.6,80.8,43.6,39.7,45.2"/>
							<path id="XMLID_145_" class="st2" d="M175.2,169.6c6.6-0.5,6.7-0.5,5.8-19.9L177,71.4c14.7-0.6,29.6-1.3,44.6-2l5.8,116.4
								c-15.3,0.7-30.4,1.3-45.4,2c0.1-2.9,0.2-6.8,0.3-9.7c-14.2,19.5-52.7,18.1-56.6-7.2c-0.8-5.3-1.3-14.6-1.5-18.6l-3.9-78.5
								c3.2-0.1,6.4-0.3,9.6-0.4c11.1-0.5,22.3-0.9,33.6-1.4l4,79.2C168.5,169,168.9,169.9,175.2,169.6 M221.4,63.3
								c-15,0.7-29.9,1.3-44.6,2l-6.5,5.5l-6.9-4.9c-11.3,0.5-22.5,1-33.6,1.4c-3.2,0.1-6.4,0.3-9.6,0.4l-7.4,6.5l0.4,7.2l0.6,12.2
								l2.4,47.4l0.6,11.7c1,19.5,1.6,31.2,14,39c12.6,7.9,34.1,7.7,47.9-0.4l3.9,2.9c15-0.6,30.1-1.3,45.4-2l7.9-6.5l-0.9-17.5
								c-1.9-5.1-2.8-10.2-3.2-17.7l-0.3-5.6l2.2-1.9l-1.2-24.8c-6.8-12.9-4.7-29.3-1.8-36.6l-0.6-12.4L221.4,63.3"/>
							<path id="XMLID_142_" class="st3" d="M54.7,106.8l-1.6-31.6c10-0.3,12.6,1.8,13.1,10.5l0.4,7.8
								C67.1,104.7,65.6,106.3,54.7,106.8 M40,51.3c-9.5,0.4-18.9,0.7-28,1.1l7.1,142.1c12.9-0.5,26.3-1,39.9-1.5l-3.2-64.1
								c11.4-0.3,12.5,1,13.4,16.4l2.4,47.2c12.9-0.5,26.1-1,39.5-1.6l-1.9-37.5c-1.2-22.8-1.6-31.4-25.5-35.7
								c40.8-5.5,17.3-54.3,10.2-59.9C86.6,52,82,49.8,40,51.3"/>
							<path id="XMLID_139_" class="st2" d="M289,164.5c15.5-0.9,6.4-19.7,5.3-20.6c-1.9-1.4-14.4-6.3-24.5-10.1
								c-25.4-9.6-29.4-14.8-32-23.6c-7.5-25.4,3.7-40.4,33.3-44.7c6.9-1,30.8-3.6,48.6,4.6c13.5,6.3,13.9,13.9,14.5,24.6l0.3,6.8
								c-13.9,0.7-27.8,1.3-41.5,1.9l-0.3-6.3c-1.2-21.4-13.7-9.7-13.8-9.5c-1.9,2.4-2.1,12,1.7,15.8c3,3,9.3,5.7,24.9,10.8
								c24.1,7.8,29.9,13.2,32.8,20.9c0.1,0.3,9.8,28.4-10,41c-8.9,5.7-82.3,26.9-87.9-20.9c-0.2-2-0.3-3.8-0.4-5.2l-0.3-5.6
								c13.4-0.6,27-1.2,40.6-1.8l0.4,7.4C281.2,161.5,282.4,164.8,289,164.5 M281.6,58.4c-77.6,4.2-52.1,59.2-43.8,66.5
								c6.6,5.9,17.3,10.2,22.4,12.3c-7,0.3-14,0.6-20.9,0.9l-5.7,4.7l-2.2,1.9l0.3,5.6c3.6,63.4,94.7,40.3,109.3,24.4
								c7-7.6,7-7.6,5.8-30.5l-0.6-11.7c-3.9-9.1-10.6-15.3-36-23.7c8.2-0.4,16.4-0.8,24.6-1.1l8.3-6.6l-0.3-6.8
								c-0.1-1.4-0.1-1.7-0.2-3c0,0,0,0,0,0l-8.9-5.8l-0.8-15.2C322,61.5,304.3,57.4,281.6,58.4"/>
							<path id="XMLID_138_" class="st3" d="M221.7,69.4c-15,0.7-29.9,1.3-44.6,2l3.9,78.4c0.7,15.6,0.1,16.8-0.5,17.9
								c-1.1,1.9-7.4,2.9-9.9,1c-1.2-0.9-2.1-1.6-2.9-17.4l-4-79.2c-11.3,0.5-22.5,1-33.6,1.4c-3.2,0.1-6.4,0.3-9.6,0.4l3.9,78.5
								c1,19.6,1.5,29.5,12.7,35.2c8.6,4.4,30.7,7.1,43.1-6.5c1-1.2,1.6-2,2.3-2.9c-0.1,2.9-0.2,6.8-0.3,9.7c15-0.6,30.1-1.3,45.4-2
								L221.7,69.4"/>
							<path id="XMLID_137_" class="st2" d="M398.2,39.5c-0.4,0-0.7,0-1.1,0.1c-15.7,0.8-31.3,1.5-46.9,2.2l-8.3,6.6l0.6,12.2
								c-0.5,0-1.1,0.1-1.6,0.1l-8.3,6.6l0.2,3.2l0.8,15.2l8.9,5.8c0,0,0,0,0,0c0.5,0,1.1-0.1,1.6-0.1l2.1,41.3l0.6,11.7
								c1.4,28.1,2.2,42.2,54.3,39.8c1.1-0.1,2.2-0.1,3.3-0.2c5.4-0.3,10.8-0.5,16.1-0.8l4.2-3.2l-4.6-2.9c-5.3,0.3-10.7,0.5-16,0.8
								c-1.1,0.1-2.2,0.1-3.3,0.2c-43.5,2-43.9-5.6-45.3-34l-3-59.1c-3.4,0.2-6.8,0.3-10.2,0.5l-0.9-18.4c3.4-0.2,6.8-0.3,10.2-0.5
								l-0.9-18.3c15.5-0.7,31.1-1.5,46.9-2.2c0.4,0,0.7,0,1.1-0.1l0.9,18.3c4.3-0.2,8.7-0.4,13-0.6l0.9,18.4
								c-4.3,0.2-8.7,0.4-13,0.6l3.1,62.3c0.8,14.1,0.8,14.1,15.6,13.4l-0.3-6.2c-2.6,0.1-3.6,0.1-5.3,0.2c-0.8-0.8-0.9-0.8-1.2-7.8
								l-2.8-56.1c1.4-0.1,2.8-0.1,4.3-0.2l1.8-1.4l-1.3-26.1l1.4-1.1l-3.4-2.2c-1.4,0.1-2.8,0.1-4.3,0.2l-0.6-12.2L398.2,39.5"/>
							<path id="XMLID_136_" class="st3" d="M281.9,64.6c-73,3.9-38.7,55.5-38.2,56c6.4,5.9,19.1,10.7,26,13.3
								c23.1,8.7,24.4,9.9,24.8,10.4c0.9,0.8,9.2,19.8-5.6,20.3c-6.7,0.2-7.8-2.9-8.4-14.7l-0.4-7.4c-13.6,0.6-27.2,1.2-40.6,1.8
								l0.3,5.6c1.1,18.5,5.4,28.2,26.5,33c19.1,4.4,54.1,2.8,67.4-11.6c8.8-9.5,7.8-30.7,2.8-39.7c-3.1-5.6-9.4-10.5-31.2-17.6
								c-16.8-5.4-24.2-8.4-26.6-13c-5.9-10.8,4.1-20.7,11.3-15.1c1.2,0.9,2.1,2.3,2.6,11.1l0.3,6.3c13.7-0.6,27.6-1.3,41.5-1.9
								l-0.3-6.8C333.6,85.1,332.3,62.3,281.9,64.6"/>
							<path id="XMLID_135_" class="st2" d="M470.9,25.8c-16.5,0.8-33.1,1.6-49.6,2.5l-8.4,6.6l0.9,18.5l5.2,3.3l-3.5,2.7l-1.4,1.1
								l1.3,26.1l3.3,65.4l0.3,6.2l0.2,0l0.9,18.8c-0.1,0-0.1,0-0.2,0l4.6,2.9l4.4,2.8c16.6-0.8,33.1-1.6,49.6-2.5l8.4-6.6
								l-3.6-71.3c-3.6-14.2-7.3-28.3-10.9-42.5l5.7,114.2c-16.5,0.8-33.1,1.6-49.6,2.5L422.9,60c16.4-0.8,32.8-1.6,49.1-2.4l-1.8-7
								c-15.9,0.8-31.8,1.6-47.7,2.4l-0.9-18.5c15.1-0.7,30.1-1.5,45.2-2.2l5.9-5.3L470.9,25.8"/>
							<path id="XMLID_134_" class="st3" d="M398.5,45.6c-0.4,0-0.7,0-1.1,0.1c-15.7,0.8-31.3,1.5-46.9,2.2l0.9,18.3
								c-3.4,0.2-6.8,0.3-10.2,0.5l0.9,18.4c3.4-0.2,6.8-0.3,10.2-0.5l3,59.1c1.5,28.4,1.9,36,45.3,34c1.1-0.1,2.2-0.1,3.3-0.2
								c5.3-0.3,10.7-0.5,16-0.8c0.1,0,0.1,0,0.2,0l-0.9-18.8c-15,0.7-15,0.7-15.8-13.4l-3.1-62.3c4.3-0.2,8.7-0.4,13-0.6l-0.9-18.4
								c-4.3,0.2-8.7,0.4-13,0.6L398.5,45.6"/>
							<path id="XMLID_131_" class="st3" d="M472.1,57.6c-16.4,0.8-32.7,1.6-49.1,2.4l5.8,116.4c16.6-0.8,33.1-1.6,49.6-2.5
								l-5.7-114.2L472.1,57.6 M466.8,32.2c-15,0.8-30.1,1.5-45.2,2.2l0.9,18.5c15.9-0.8,31.8-1.6,47.7-2.4
								c-1.5-5.8-3-11.6-4.5-17.5L466.8,32.2"/>
							<path id="XMLID_128_" d="M545.2,127.8c1.3-29.1,2.6-50.4,4.6-73.3c0.7-8.9,1.4-17.7,2.1-26.6c17.5-0.9,34.9-1.8,52.3-2.7
								c-5,39.8-12.8,101.4-18.1,143.4c-25.1,1.3-50.4,2.6-75.7,3.9C506,154.9,479.3,51,474.4,31.8c17.6-0.9,35.2-1.8,52.8-2.7
								C535.6,70.1,540.8,98.6,545.2,127.8 M603.9,18.9c-17.4,0.9-34.8,1.8-52.3,2.7l-8.4,6c-0.7,8.9-1.4,17.7-2.1,26.6
								c-1.8-9.2-3.3-16.6-5.3-26.3l-8.9-5c-17.5,0.9-35.1,1.8-52.8,2.7l-1.4,1.3l-5.9,5.3l-1,0.9c1.5,5.8,3,11.6,4.5,17.5l1.8,7
								l0.6,2.2c3.6,14.2,7.3,28.3,10.9,42.5c9.2,36.1,9.2,36.1,18.3,71.4l8.9,4.9c25.3-1.3,50.6-2.6,75.7-3.9l8.3-5.9
								c3.2-25.7,6.5-51.3,9.7-77l0-0.8c-0.4-9.5,0.5-16.2,3-22.9c1.8-14.3,3.6-28.5,5.4-42.8C610.1,23.5,607.1,19.9,603.9,18.9"/>
							<path id="XMLID_127_" class="st4" d="M604.2,25.1c-17.4,0.9-34.8,1.8-52.3,2.7c-4.5,57.2-5,63.1-6.7,99.9
								c-4.4-29.1-9.6-57.7-18.1-98.7c-17.5,0.9-35.1,1.8-52.8,2.7c12,46.9,24,93.7,36.1,140.6c25.3-1.3,50.6-2.6,75.7-3.9
								C587.6,156.7,604.1,25.8,604.2,25.1"/>
							<path id="XMLID_122_" d="M666.4,66c-6.6,0.5-7.1,1.7-6.5,14.7l0.4,8.5c4.6-0.2,9.2-0.5,13.7-0.7l-0.4-8.5
								C673,68.7,672,65.7,666.4,66 M670.1,114.7l0-0.8c0.4,0,0.7,0,1.1-0.1L670.1,114.7 M672.4,166c-55.2,2.6-56.8-26-57.7-41.4
								l-1.7-34c-2.3-59.2,79.5-48.5,96.1-33.4c7.2,6.6,10.6,15.9,11.5,32.2l0.8,15.5c-10.4,0.6-20.9,1.2-31.6,1.7
								c-9.5,0.5-19.1,1-28.7,1.6l1.3,25.2c1.2,21.1,14.3,9.5,14.5,9.4c1.9-2.4,1.9-7.7,1.7-12.6l-0.8-15.4
								c4.1-0.2,8.3-0.5,12.4-0.7c10.6-0.6,21.2-1.2,31.6-1.7l0.4,8.6C722.7,131.5,724.2,163.2,672.4,166 M662.8,39.3
								c-60.3,3.8-58.9,39.9-58.4,51.7l0,0.8l1.7,33.2c4,70.3,97,48.5,114.6,28.8c7.4-8.3,8.7-14.2,9.1-16.2l-1.3-26.8l-3.5-2.3
								l3.3-2.7l-1.7-34.3C717.8,41,682.9,38.3,662.8,39.3"/>
							<path id="XMLID_119_" class="st4" d="M660.3,89.2l-0.4-8.5c-0.3-5.4-0.3-11.2,0.9-12.7c1.7-2.1,7.8-2.9,10.1-0.8
								c1.3,1.2,2.2,3.8,2.7,12.7l0.4,8.5C669.4,88.7,664.9,89,660.3,89.2 M663.1,45.5c-51.7,3.3-50.6,32.6-50.1,45.1l1.7,34
								c0.7,12.7,1.8,31.9,28.4,38.9c9.5,2.5,51.9,8,70.6-12.9c7.7-8.7,9.3-13.9,8.6-29.5l-0.4-8.6c-10.4,0.6-20.9,1.2-31.6,1.7
								c-4.1,0.2-8.3,0.5-12.4,0.7l0.8,15.4c1,23.5-13.5,13.9-13.7,13.8c-1.4-1.4-2.1-4.5-2.5-10.6l-1.3-25.2
								c9.6-0.5,19.1-1,28.7-1.6c10.6-0.6,21.2-1.2,31.6-1.7l-0.8-15.5C719.8,74.2,717.9,42.5,663.1,45.5"/>
							<path id="XMLID_118_" d="M802.5,31.5c-9.7,1.2-15.5,4.4-19.9,7.4l-5.1-3.9c-14.6,0.8-29.4,1.7-44.5,2.5l-7.9,6.6l1.4,27.3
								l1.7,34.3l0.3,5l1.3,26.8l1.2,23.1l8.6,5.7c15.1-0.8,29.9-1.7,44.5-2.5l7.6-6.6l-2.3-46c-1.2-25.3-1.2-25.3,16.4-26.4
								c0-0.1,0-0.1-1.2-5.7c-2.7-0.5-16.5,0.5-21.2,7.1c-1.9,2.6-3,4.2-2,25.5l2.3,46c-14.6,0.8-29.4,1.7-44.5,2.5l-5.8-116.4
								c15.1-0.8,29.9-1.7,44.5-2.5c-0.3,4.6-0.7,10.8-1,15.4c6.4-11.7,14.1-17.2,26.5-19l1,20.4c1.2-6.2,3.2-10.2,7.1-14.4
								l-0.3-6.4L802.5,31.5"/>
							<path id="XMLID_117_" class="st4" d="M803.4,37.7c-12.4,1.8-20.1,7.3-26.5,19c0.3-4.6,0.7-10.8,1-15.4
								c-14.6,0.8-29.4,1.7-44.5,2.5l5.8,116.4c15.1-0.8,29.9-1.7,44.5-2.5l-2.3-46c-1.2-25.2-1.5-31.2,23.1-33
								c-1.2-6.2-1.2-14.3-0.1-20.7L803.4,37.7"/>
							<path id="XMLID_114_" d="M859.8,134.7c14-1.2,5-20.1,4.8-20.3c-1.6-1.7-14.5-7.1-22.1-10.2c-20.4-8.3-30.2-13.2-31.1-32.4
								c-0.5-11.4-1.8-38,49.5-37.1c35.4,0.6,36.5,19.8,37,30.1l0.3,6.8c-11.6,0.7-23.4,1.4-35.4,2.1l-0.3-6.3
								C861.5,47.2,852.1,56,851,57.1c-3.4,3.4-1.5,13.7,0.3,15.9c2.8,3.4,7.7,5.8,22.5,11.3c21.1,7.8,25.9,13.3,28.2,22
								c1.3,5,7.1,30.7-11.3,41.8c-0.7,0.4-72.2,30-75.7-27.5l-0.3-5.6c12.6-0.7,25-1.5,37.1-2.2l0.4,7.4
								C852.9,131.7,854,135,859.8,134.7 M852.7,28.6c-68.9,4.7-49.3,58.8-38.5,67.9c6.1,5.2,15.3,9.2,19.7,11.1
								c-6.4,0.4-12.8,0.8-19.3,1.1l-7.4,6.6l0.3,5.6c3.7,62.2,83.2,39.1,95.3,25.7c6.2-6.9,7.1-14.6,7.1-14.7
								c0-0.2-0.2-0.5-0.3-0.7c-3.2-7.4-3.9-18.5-4.1-23.2l-0.6-12.7c-4.5-6.3-12.1-10.9-26.8-16.5c7-0.4,13.9-0.8,20.7-1.3
								c1.5-1.4,3.5-3.4,5-4.8c-0.2-7.1,1.7-14.1,0-21.2c-0.5-1.9-1.7-6.9-8.3-12.7C888.9,33.4,876.4,27.1,852.7,28.6"/>
							<path id="XMLID_113_" class="st4" d="M853,34.8C790.8,39,812.8,86,819.6,91.9c6,5.3,16.6,9.6,23,12.2
								c7.6,3.1,20.5,8.5,22.1,10.2c0.8,0.8,8.3,19.2-4.3,20.3c-6.4,0.6-7.4-2.6-8.1-14.6l-0.4-7.4c-12.2,0.7-24.5,1.4-37.1,2.2
								l0.3,5.6c1.1,18,4.8,27.4,23.1,32.4c16.2,4.4,46.4,3.5,58.8-9.9c10.2-11.1,6.4-34.7,3.8-40.3c-2.1-4.6-4.7-10.3-27-18.5
								c-14.3-5.3-21.2-8.2-23.4-12.8c-5.3-11.1,3.7-20.9,9.9-15.2c0.9,0.8,1.8,1.7,2.3,11.1l0.3,6.3c12-0.7,23.8-1.4,35.4-2.1
								l-0.3-6.8C897.4,54.1,896.2,32.2,853,34.8"/>
							<path id="XMLID_108_" d="M952.9,49.3c-5.1,0.4-5.5,1.7-4.9,14.7l0.4,8.5c3.6-0.2,7.1-0.5,10.6-0.7l-0.4-8.5
								C958,52.1,957.3,49,952.9,49.3 M956.4,98l0-0.8c0.3,0,0.6,0,0.8-0.1L956.4,98 M958.7,149.3c-43.9,2.4-45.6-27.3-46.4-41.6
								l-1.7-34c-2.3-56.3,58-48.8,72-35.6c6,5.6,10.3,13.7,11.5,35l0.8,15.5c-14.5,1-29.7,1.9-45.6,2.9l1.3,25.2
								c1.1,20.7,10.8,10.2,10.9,10.1c1.5-1.8,1.9-5.6,1.6-13.2l-0.8-15.4c11.3-0.7,22.3-1.4,33-2.1l0.4,8.6
								C996.3,116.2,997.7,146.8,958.7,149.3 M949.9,22.6c-32.2,2.4-47.7,19.8-46.2,51.5l1.1,21.3l0.6,12.7
								c3.6,65.6,71,50.8,86,34.1c11.7-12.9,11.1-25.6,10.5-38l-0.4-8.6l-3.9-3.5l3.5-4l-0.8-15.5C999.4,56.8,997.3,19.6,949.9,22.6
								"/>
							<path id="XMLID_105_" class="st4" d="M948.4,72.5L948,64c-0.4-7.7-0.2-11.4,0.6-12.7c1.1-2,5.6-2.7,7.4-1.2
								c1.2,1,2.1,2.6,2.7,13.2l0.4,8.5C955.6,72,952,72.2,948.4,72.5 M950.2,28.8c-41.2,3.1-40,32.4-39.5,44.9l1.7,34
								c3.5,63,65.8,39.8,74.4,30.4c10.1-11.1,9.6-21.4,9-33.4l-0.4-8.6c-10.6,0.7-21.6,1.4-33,2.1l0.8,15.4
								c1,22.5-9.3,14.7-9.8,14.3c-1.2-0.9-2.2-2.4-2.7-11.2l-1.3-25.2c15.8-1,31-2,45.6-2.9l-0.8-15.5
								C993.3,56.7,991.5,26.2,950.2,28.8"/>
						</g>
					</g>
				</g>
			</g>
		</g>
	</g>
</g>
</svg>
